<svg xmlns="http://www.w3.org/2000/svg" viewBox="0 0 19 10" role="img" aria-label="United States flag">
  <rect width="19" height="10" fill="#fff"/>
  <g fill="#b22234">
    <rect y="0.769" width="19" height="0.769"/>
    <rect y="2.308" width="19" height="0.769"/>
    <rect y="3.846" width="19" height="0.769"/>
    <rect y="5.385" width="19" height="0.769"/>
    <rect y="6.923" width="19" height="0.769"/>
    <rect y="8.462" width="19" height="0.769"/>
  </g>
  <rect width="7.6" height="5.385" fill="#3c3b6e"/>
  <g fill="#fff">
    <circle cx="0.63" cy="0.54" r="0.22"/>
    <circle cx="1.52" cy="0.54" r="0.22"/>
    <circle cx="2.41" cy="0.54" r="0.22"/>
    <circle cx="3.3" cy="0.54" r="0.22"/>
    <circle cx="4.19" cy="0.54" r="0.22"/>
    <circle cx="5.08" cy="0.54" r="0.22"/>
    <circle cx="1.07" cy="1.08" r="0.22"/>
    <circle cx="1.96" cy="1.08" r="0.22"/>
    <circle cx="2.85" cy="1.08" r="0.22"/>
    <circle cx="3.74" cy="1.08" r="0.22"/>
    <circle cx="4.63" cy="1.08" r="0.22"/>
    <circle cx="0.63" cy="1.62" r="0.22"/>
    <circle cx="1.52" cy="1.62" r="0.22"/>
    <circle cx="2.41" cy="1.62" r="0.22"/>
    <circle cx="3.3" cy="1.62" r="0.22"/>
    <circle cx="4.19" cy="1.62" r="0.22"/>
    <circle cx="5.08" cy="1.62" r="0.22"/>
    <circle cx="1.07" cy="2.16" r="0.22"/>
    <circle cx="1.96" cy="2.16" r="0.22"/>
    <circle cx="2.85" cy="2.16" r="0.22"/>
    <circle cx="3.74" cy="2.16" r="0.22"/>
    <circle cx="4.63" cy="2.16" r="0.22"/>
    <circle cx="0.63" cy="2.7" r="0.22"/>
    <circle cx="1.52" cy="2.7" r="0.22"/>
    <circle cx="2.41" cy="2.7" r="0.22"/>
    <circle cx="3.3" cy="2.7" r="0.22"/>
    <circle cx="4.19" cy="2.7" r="0.22"/>
    <circle cx="5.08" cy="2.7" r="0.22"/>
    <circle cx="1.07" cy="3.24" r="0.22"/>
    <circle cx="1.96" cy="3.24" r="0.22"/>
    <circle cx="2.85" cy="3.24" r="0.22"/>
    <circle cx="3.74" cy="3.24" r="0.22"/>
    <circle cx="4.63" cy="3.24" r="0.22"/>
    <circle cx="0.63" cy="3.78" r="0.22"/>
    <circle cx="1.52" cy="3.78" r="0.22"/>
    <circle cx="2.41" cy="3.78" r="0.22"/>
    <circle cx="3.3" cy="3.78" r="0.22"/>
    <circle cx="4.19" cy="3.78" r="0.22"/>
    <circle cx="5.08" cy="3.78" r="0.22"/>
    <circle cx="1.07" cy="4.32" r="0.22"/>
    <circle cx="1.96" cy="4.32" r="0.22"/>
    <circle cx="2.85" cy="4.32" r="0.22"/>
    <circle cx="3.74" cy="4.32" r="0.22"/>
    <circle cx="4.63" cy="4.32" r="0.22"/>
    <circle cx="0.63" cy="4.86" r="0.22"/>
    <circle cx="1.52" cy="4.86" r="0.22"/>
    <circle cx="2.41" cy="4.86" r="0.22"/>
    <circle cx="3.3" cy="4.86" r="0.22"/>
    <circle cx="4.19" cy="4.86" r="0.22"/>
    <circle cx="5.08" cy="4.86" r="0.22"/>
  </g>
</svg>
